<svg width="74" height="42" viewBox="0 0 74 42" fill="none" xmlns="http://www.w3.org/2000/svg">
<path d="M8.192 30.248L0.344 22.184L8.192 14.12H14.528L6.68 22.184L14.528 30.248H8.192ZM35.6594 9.872V27.512C35.6594 29.96 34.9514 31.868 33.5354 33.236C32.1194 34.58 30.2234 35.252 27.8474 35.252C25.4474 35.252 23.5034 34.556 22.0154 33.164C20.5514 31.772 19.8194 29.828 19.8194 27.332H24.8594C24.8834 28.412 25.1354 29.252 25.6154 29.852C26.1194 30.452 26.8394 30.752 27.7754 30.752C28.6874 30.752 29.3834 30.464 29.8634 29.888C30.3434 29.312 30.5834 28.52 30.5834 27.512V9.872H35.6594ZM55.0387 0.907999L45.3187 41.516H40.3867L50.1067 0.907999H55.0387ZM59.7665 14.12H66.1385L73.9865 22.184L66.1385 30.248H59.7665L67.6505 22.184L59.7665 14.12Z" fill="white"/>
</svg>
